<svg id="Layer_2" data-name="Layer 2" xmlns="http://www.w3.org/2000/svg" viewBox="0 0 512 512"><defs><style>.cls-1{fill:#d8d8db;}.cls-2{fill:#e8e8e9;}.cls-3{fill:#1e1e1e;}</style></defs><title>Artboard 1</title><circle class="cls-1" cx="255.81" cy="252.7" r="206.43"/><path class="cls-2" d="M255.81,45.83V458.68C369.73,458.57,462,366.2,462,252.26S369.73,45.94,255.81,45.83Z"/><polyline points="161.24 311.04 161.24 401.43 206.68 401.43"/><circle cx="161.36" cy="212.91" r="20"/><polygon points="285.33 212.83 312.53 228.88 200.35 212.83 312.53 196.78 285.33 212.83"/><polygon class="cls-3" points="197.6 212.83 286.09 212.83 314.33 196.09 197.6 212.83"/><path d="M381.36,217.09c0-115.15-103.1-100.35-103.1-100.35l-117,1,20.1,36.58,87.79-.68,9.37-.16c34.43-.59,63.35,26.53,64.11,61,0,.79,0,1.58,0,2.39s0,1.42,0,2.12c-.52,28.88-24.48,51.85-53.37,51.75l-107.91-.38V311l55.11,90.39,110.7,4.08-70.62-94.23S381.36,332.23,381.36,217.09Z"/></svg>